<mxfile host="app.diagrams.net" agent="Mozilla/5.0 (Windows NT 10.0; Win64; x64) AppleWebKit/537.36 (KHTML, like Gecko) Chrome/131.0.0.0 Safari/537.36" version="25.0.3">
  <diagram name="Strona-1" id="Scgg916_XBtNbLoqnLQ0">
    <mxGraphModel dx="2843" dy="746" grid="1" gridSize="10" guides="1" tooltips="1" connect="1" arrows="1" fold="1" page="1" pageScale="1" pageWidth="1169" pageHeight="827" math="0" shadow="0">
      <root>
        <mxCell id="0" />
        <mxCell id="1" parent="0" />
        <mxCell id="Vpx7Sv_BWOCrT1ZjL_7J-3" value="Nauczyciel" style="shape=umlActor;html=1;verticalLabelPosition=bottom;verticalAlign=top;align=center;" parent="1" vertex="1">
          <mxGeometry x="310" y="280" width="30" height="60" as="geometry" />
        </mxCell>
        <mxCell id="7erooQuaVug4p2jluh0y-1" value="Uczeń" style="shape=umlActor;html=1;verticalLabelPosition=bottom;verticalAlign=top;align=center;" parent="1" vertex="1">
          <mxGeometry x="-120" y="280" width="30" height="60" as="geometry" />
        </mxCell>
        <mxCell id="kKxhhPhvIYWjCeATcwsm-15" value="PU23. Zamieszczenie pliku o ograniczonym rozmiarze" style="ellipse;whiteSpace=wrap;html=1;" parent="1" vertex="1">
          <mxGeometry x="30" y="200" width="160" height="80" as="geometry" />
        </mxCell>
        <mxCell id="kKxhhPhvIYWjCeATcwsm-18" value="PU25&lt;span style=&quot;background-color: initial;&quot;&gt;. Usunięcie zamieszczonych przez siebie plików&lt;/span&gt;" style="ellipse;whiteSpace=wrap;html=1;" parent="1" vertex="1">
          <mxGeometry x="40" y="400" width="140" height="70" as="geometry" />
        </mxCell>
        <mxCell id="kKxhhPhvIYWjCeATcwsm-19" value="" style="edgeStyle=none;html=1;endArrow=none;verticalAlign=bottom;rounded=0;" parent="1" edge="1">
          <mxGeometry width="160" relative="1" as="geometry">
            <mxPoint x="360" y="320" as="sourcePoint" />
            <mxPoint x="410" y="280" as="targetPoint" />
          </mxGeometry>
        </mxCell>
        <mxCell id="kKxhhPhvIYWjCeATcwsm-20" value="PU26&lt;span style=&quot;background-color: initial;&quot;&gt;. Usunięcie plików zamieszczonych przez dowolną osobę&lt;/span&gt;" style="ellipse;whiteSpace=wrap;html=1;" parent="1" vertex="1">
          <mxGeometry x="415" y="210" width="170" height="80" as="geometry" />
        </mxCell>
        <mxCell id="kKxhhPhvIYWjCeATcwsm-22" value="" style="edgeStyle=none;html=1;endArrow=none;verticalAlign=bottom;rounded=0;" parent="1" edge="1">
          <mxGeometry width="160" relative="1" as="geometry">
            <mxPoint x="370" y="350" as="sourcePoint" />
            <mxPoint x="460" y="350" as="targetPoint" />
          </mxGeometry>
        </mxCell>
        <mxCell id="kKxhhPhvIYWjCeATcwsm-23" value="PU30. Możliwość edycji utworzonych już lekcji" style="ellipse;whiteSpace=wrap;html=1;" parent="1" vertex="1">
          <mxGeometry x="470" y="300" width="170" height="100" as="geometry" />
        </mxCell>
        <mxCell id="kKxhhPhvIYWjCeATcwsm-24" value="PU27. Utworzenie lekcji przez nauczyciela" style="ellipse;whiteSpace=wrap;html=1;" parent="1" vertex="1">
          <mxGeometry x="340" y="470" width="170" height="100" as="geometry" />
        </mxCell>
        <mxCell id="kKxhhPhvIYWjCeATcwsm-25" value="" style="edgeStyle=none;html=1;endArrow=none;verticalAlign=bottom;rounded=0;" parent="1" edge="1">
          <mxGeometry width="160" relative="1" as="geometry">
            <mxPoint x="370" y="370" as="sourcePoint" />
            <mxPoint x="630" y="530" as="targetPoint" />
          </mxGeometry>
        </mxCell>
        <mxCell id="kKxhhPhvIYWjCeATcwsm-27" value="PU31. Wyświetlenie&lt;span style=&quot;background-color: initial;&quot;&gt;&amp;nbsp;szczegółów istniejących lekcji&lt;/span&gt;" style="ellipse;whiteSpace=wrap;html=1;" parent="1" vertex="1">
          <mxGeometry x="40" y="490" width="140" height="70" as="geometry" />
        </mxCell>
        <mxCell id="BSuVpLCRIrNFxVPoSWEV-2" value="PU24. Pobranie plików zamieszczonych przez innych" style="ellipse;whiteSpace=wrap;html=1;" parent="1" vertex="1">
          <mxGeometry x="30" y="300" width="160" height="84" as="geometry" />
        </mxCell>
        <mxCell id="BSuVpLCRIrNFxVPoSWEV-4" value="PU28. Sprawdzenie obecności w ramach lekcji" style="ellipse;whiteSpace=wrap;html=1;" parent="1" vertex="1">
          <mxGeometry x="170" y="620" width="170" height="100" as="geometry" />
        </mxCell>
        <mxCell id="BSuVpLCRIrNFxVPoSWEV-5" value="PU29. Uzupełnienie szczegółów lekcji" style="ellipse;whiteSpace=wrap;html=1;" parent="1" vertex="1">
          <mxGeometry x="585" y="540" width="170" height="100" as="geometry" />
        </mxCell>
        <mxCell id="BSuVpLCRIrNFxVPoSWEV-6" value="&amp;lt;&amp;lt;extend&amp;gt;&amp;gt;" style="html=1;verticalAlign=bottom;labelBackgroundColor=none;endArrow=open;endFill=0;dashed=1;rounded=0;" parent="1" edge="1">
          <mxGeometry x="-0.1707" y="-17" width="160" relative="1" as="geometry">
            <mxPoint x="570" y="580" as="sourcePoint" />
            <mxPoint x="520" y="560" as="targetPoint" />
            <mxPoint as="offset" />
          </mxGeometry>
        </mxCell>
        <mxCell id="BSuVpLCRIrNFxVPoSWEV-10" value="" style="edgeStyle=none;html=1;endArrow=none;verticalAlign=bottom;rounded=0;" parent="1" edge="1">
          <mxGeometry width="160" relative="1" as="geometry">
            <mxPoint x="190" y="430" as="sourcePoint" />
            <mxPoint x="300" y="370" as="targetPoint" />
          </mxGeometry>
        </mxCell>
        <mxCell id="BSuVpLCRIrNFxVPoSWEV-13" value="" style="edgeStyle=none;html=1;endArrow=none;verticalAlign=bottom;rounded=0;" parent="1" edge="1">
          <mxGeometry width="160" relative="1" as="geometry">
            <mxPoint x="200" y="340" as="sourcePoint" />
            <mxPoint x="300" y="320" as="targetPoint" />
          </mxGeometry>
        </mxCell>
        <mxCell id="BSuVpLCRIrNFxVPoSWEV-14" value="" style="edgeStyle=none;html=1;endArrow=none;verticalAlign=bottom;rounded=0;" parent="1" edge="1">
          <mxGeometry width="160" relative="1" as="geometry">
            <mxPoint x="200" y="240" as="sourcePoint" />
            <mxPoint x="300" y="300" as="targetPoint" />
          </mxGeometry>
        </mxCell>
        <mxCell id="BSuVpLCRIrNFxVPoSWEV-15" value="" style="edgeStyle=none;html=1;endArrow=none;verticalAlign=bottom;rounded=0;" parent="1" edge="1">
          <mxGeometry width="160" relative="1" as="geometry">
            <mxPoint x="20" y="240" as="sourcePoint" />
            <mxPoint x="-80" y="280" as="targetPoint" />
          </mxGeometry>
        </mxCell>
        <mxCell id="BSuVpLCRIrNFxVPoSWEV-18" value="" style="edgeStyle=none;html=1;endArrow=none;verticalAlign=bottom;rounded=0;" parent="1" edge="1">
          <mxGeometry width="160" relative="1" as="geometry">
            <mxPoint x="30" y="430" as="sourcePoint" />
            <mxPoint x="-80" y="370" as="targetPoint" />
          </mxGeometry>
        </mxCell>
        <mxCell id="BSuVpLCRIrNFxVPoSWEV-19" value="" style="edgeStyle=none;html=1;endArrow=none;verticalAlign=bottom;rounded=0;" parent="1" edge="1">
          <mxGeometry width="160" relative="1" as="geometry">
            <mxPoint x="20" y="330" as="sourcePoint" />
            <mxPoint x="-80" y="310" as="targetPoint" />
          </mxGeometry>
        </mxCell>
        <mxCell id="u2py75oOOKdZLh4ZNoIV-2" value="" style="edgeStyle=none;html=1;endArrow=none;verticalAlign=bottom;rounded=0;" edge="1" parent="1">
          <mxGeometry width="160" relative="1" as="geometry">
            <mxPoint x="190" y="510" as="sourcePoint" />
            <mxPoint x="310" y="380" as="targetPoint" />
          </mxGeometry>
        </mxCell>
        <mxCell id="u2py75oOOKdZLh4ZNoIV-3" value="" style="edgeStyle=none;html=1;endArrow=none;verticalAlign=bottom;rounded=0;" edge="1" parent="1">
          <mxGeometry width="160" relative="1" as="geometry">
            <mxPoint x="30" y="510" as="sourcePoint" />
            <mxPoint x="-90" y="380" as="targetPoint" />
          </mxGeometry>
        </mxCell>
        <mxCell id="u2py75oOOKdZLh4ZNoIV-5" value="" style="edgeStyle=none;html=1;endArrow=none;verticalAlign=bottom;rounded=0;" edge="1" parent="1">
          <mxGeometry width="160" relative="1" as="geometry">
            <mxPoint x="360" y="380" as="sourcePoint" />
            <mxPoint x="390" y="450" as="targetPoint" />
          </mxGeometry>
        </mxCell>
        <mxCell id="u2py75oOOKdZLh4ZNoIV-6" value="" style="edgeStyle=none;html=1;endArrow=none;verticalAlign=bottom;rounded=0;" edge="1" parent="1">
          <mxGeometry width="160" relative="1" as="geometry">
            <mxPoint x="330" y="380" as="sourcePoint" />
            <mxPoint x="260" y="610" as="targetPoint" />
          </mxGeometry>
        </mxCell>
        <mxCell id="u2py75oOOKdZLh4ZNoIV-8" value="&amp;lt;&amp;lt;extend&amp;gt;&amp;gt;" style="html=1;verticalAlign=bottom;labelBackgroundColor=none;endArrow=open;endFill=0;dashed=1;rounded=0;" edge="1" parent="1">
          <mxGeometry x="-0.2131" y="26" width="160" relative="1" as="geometry">
            <mxPoint x="350" y="640" as="sourcePoint" />
            <mxPoint x="400" y="580" as="targetPoint" />
            <mxPoint as="offset" />
          </mxGeometry>
        </mxCell>
      </root>
    </mxGraphModel>
  </diagram>
</mxfile>
